<svg xmlns="http://www.w3.org/2000/svg" width="89" height="89" viewBox="0 0 89 89"><defs><style>.a{fill:#80cbc4;}</style></defs><g transform="translate(-21.7 -21.7)"><path class="a" d="M66.2,21.7a44.5,44.5,0,1,0,44.5,44.5A44.47,44.47,0,0,0,66.2,21.7ZM87.9,83.9a.789.789,0,0,1-.8.8H79.5v7.6a.7.7,0,0,1-.7.9H68.7a.789.789,0,0,1-.8-.8V84.8h-11A18.629,18.629,0,0,1,38.3,66.2c0-13.1,12.2-17.6,12.4-17.7a.783.783,0,0,1,.8.1,1.012,1.012,0,0,1,.4.7v3.4h.8a5.911,5.911,0,0,1,5.9,5.9,1.949,1.949,0,0,0,.1.8,1.452,1.452,0,0,0,.6.1h1.9c.1,0,1.7,0,1.7,2.5v1.7c0,2.6-1.9,4.2-5.1,4.2a4.225,4.225,0,0,0-4.2,4.2.8.8,0,1,1-1.6,0,5.848,5.848,0,0,1,5.9-5.9c1.5,0,3.4-.4,3.4-2.5V61.9L59,63.5a.764.764,0,0,1-.5.2.755.755,0,0,1-.7-.4.83.83,0,0,1,.2-1.2l1.3-.9a1.94,1.94,0,0,1-1.6-.5,2.628,2.628,0,0,1-.6-2,4.225,4.225,0,0,0-4.2-4.2H51.2a.789.789,0,0,1-.8-.8V50.8A16.346,16.346,0,0,0,40,66.2,16.943,16.943,0,0,0,56.9,83.1H68.7a.789.789,0,0,1,.8.8v7.6h8.4V83.9a.789.789,0,0,1,.8-.8h7.6V74.7H78.7a.789.789,0,0,1-.8-.8v-8a6.455,6.455,0,0,1-8.4-6.1c0-3.9,1.1-13,1.1-13.3a.806.806,0,1,1,1.6.2c0,.1-1.1,9.3-1.1,13.1a4.7,4.7,0,1,0,9.4,0c0-1.4-.9-2.7-2-4.2-1.6-2.1-3.5-4.8-3.5-9a.8.8,0,0,1,1.6,0c0,3.7,1.7,6,3.2,8,1.2,1.7,2.3,3.2,2.3,5.2a6.034,6.034,0,0,1-2.6,5.3V73h7.6a.789.789,0,0,1,.8.8V83.9ZM67.9,73V65.4a.789.789,0,0,1,.8-.8h.8a.8.8,0,0,1,0,1.6v7.6a.789.789,0,0,1-.8.8H62v5.9a1.055,1.055,0,0,1-.9.9.789.789,0,0,1-.8-.8V73.8a.789.789,0,0,1,.8-.8Zm-16-13.5a.8.8,0,0,1-1.6,0,2.5,2.5,0,0,1,5,0,1.077,1.077,0,0,1-1,.8.789.789,0,0,1-.8-.8.8.8,0,0,0-1.6,0Zm27.8-11a.789.789,0,0,1,.8-.8c.4-.1.8.3.8.8a.8.8,0,0,1-1.6,0Zm5,11a.789.789,0,0,1-.8-.8.882.882,0,0,1,.8-.9,6.325,6.325,0,0,0,5.8-5.1h-.4a2.754,2.754,0,0,1-3-2.6v-.8H84.7a.789.789,0,0,1-.8-.8A7.6,7.6,0,0,0,76,40.9c-3.9,0-6.4,2.5-7.9,8.1a37.5,37.5,0,0,1-3.7,9.2.875.875,0,0,1-1.5-.9,32.856,32.856,0,0,0,3.6-8.8c.6-2.3,2.6-9.3,9.6-9.3a9.2,9.2,0,0,1,9.5,8.4h.9c4.1.1,5.9,1.4,5.9,4.4C92.3,54.6,89.7,59.4,84.7,59.5Z"/><path class="a" d="M88.7,49.6v.5c0,.9,1,.9,1.3.9h.5A2.287,2.287,0,0,0,88.7,49.6Z"/></g></svg>