<svg xmlns="http://www.w3.org/2000/svg" width="339.389" height="131" viewBox="0 0 339.389 131"><defs><style>.a,.b{fill:#403f3f;}.a{fill-rule:evenodd;}</style></defs><g transform="translate(-19.292 -22.781)"><g transform="translate(19.292 22.781)"><path class="a" d="M128.385,136.373a15.536,15.536,0,0,0-.816-2.284l-1.387-4.732a59.764,59.764,0,0,1-1.55-6.037c-.245-1.713-.734-3.671-.816-5.384a24.721,24.721,0,0,1,.082-4.242c.163-.979.245-1.55-.326-2.2-.979-1.142-.653-.9-.734-2.366-.082-.979-.816-1.468-.571-2.366.245-1.305,2.121-3.1,2.2-3.916-.408-.326-.408-.245-.979-.245a15.623,15.623,0,0,1-1.713,1.305c-.326.245-.163.245-.408.408-.163.163-.326.163-.408.326a30.228,30.228,0,0,0-2.2,2.366c-.816.816-1.061.816-2.04.245a6.875,6.875,0,0,0-1.142-.489,18.73,18.73,0,0,0-3.182-1.387c-.9-.245-1.632-.489-2.447-.653-.489-.082-.816-.082-1.305-.163-.816-.163-1.958-.163-2.774-.326-2.2-.245-1.55.082-2.692.082a12.721,12.721,0,0,0-2.855.245,32.67,32.67,0,0,0-3.916.653c-.653.082-.163,0-.653.245a26.776,26.776,0,0,0-3.916,1.305,6.876,6.876,0,0,0-1.142.489l-3.019,1.468a37.759,37.759,0,0,0-8,5.956,1.78,1.78,0,0,1-.408.326,41.942,41.942,0,0,0-4.569,5.3,8.546,8.546,0,0,0-.653.9c-.816,1.305-1.632,2.447-2.366,3.834a8.6,8.6,0,0,0-.571.9,35.151,35.151,0,0,0-1.795,4,7.142,7.142,0,0,0-.979,2.121,7.235,7.235,0,0,1-.653,2.366c-.408.816-.245,2.855-.653,3.916l-.653,2.447c-.163.571,0,.653-.163,1.305l-.326,4.324v1.468c-.082,4.65-.163,4.569,2.284,6.935.489.489,1.061.979,1.55,1.468a42.2,42.2,0,0,0,5.058,4.242c.489.326,1.305.9,1.876,1.224,1.958,1.224,2.121,2.611,4.732,3.019a18.809,18.809,0,0,1,3.834.653,5.078,5.078,0,0,0,.979.653c2.2,1.142,7.016.163,9.627.653.816.163,2.04.082,2.692.163a47.681,47.681,0,0,1,4.895,1.224c.9.163,1.713.245,2.611.326a45.223,45.223,0,0,0,5.711-.245c2.2-.163,3.753.49,5.3-.734a8.191,8.191,0,0,0,2.284-3.834c.49-1.305,1.632-2.855,1.632-4.324a18.662,18.662,0,0,0-2.529-.734c-4.161-.9-2.121-.734-4.65-2.04a14.543,14.543,0,0,0-2.692-.734c-.9-.163-1.795-.408-2.692-.653a4.251,4.251,0,0,1-1.224-.49c-.816-.326-2.855-.49-3.834-1.061-.326-.163-.408-.571-1.061-.49-.489.082.082.082-.571.082-.163,0-.489-.082-.734-.082a5.017,5.017,0,0,0,.082-1.142c.082-.408.163-.653.245-1.061a34.209,34.209,0,0,1,.9-4.161c.082-.326.082-.653.163-1.061s.163-.49.245-.979c.163-.816.326-1.224.489-2.04.082-.408.082-.734.163-1.061.082-.408.163-.489.245-.979.245-1.468.408-2.855.653-4.405a12.082,12.082,0,0,0-.082-2.447,4.039,4.039,0,0,0-3.834-3.671c-1.632-.082-2.529-.163-3.019-2.121-.653-2.611-.163-2.611.734-3.753,1.061-.082.979.408,2.04-.082.653-.326.816-.245,1.55-.653a18.432,18.432,0,0,0,2.2-2.2,6.056,6.056,0,0,1,2.529-.979c.245-.082.653-.163.816-.245,1.468-.734.326-2.529.9-3.508.49-.245.816,0,1.142.408a6.865,6.865,0,0,1,1.224,2.121,2.306,2.306,0,0,1,.326,1.305,10.4,10.4,0,0,1,.082,1.55c-.408,3.345-1.55,6.69-.082,9.79a8.189,8.189,0,0,0,1.55,1.795,4.1,4.1,0,0,1,.979.653,8.669,8.669,0,0,0,.9.734c.571.326.489.49.9.816a6.8,6.8,0,0,1,.979.653,25.17,25.17,0,0,1,2.611,2.366c.163.245.082.245.326.49a11.116,11.116,0,0,1,2.2,3.508,5.346,5.346,0,0,0,1.061,2.447l.245.245a4.369,4.369,0,0,0,2.855,1.224c.816.082.734,0,1.224-.326a3.256,3.256,0,0,1,1.061-.571c.082-.9.653-2.04.734-2.774s0-.163-.571-.571c0-.653-.082-.979.571-1.142v.9c.245-.163.163-.082.326-.326a3.109,3.109,0,0,0,.245-.816c.245-.734.163-.49-.082-1.224C128.3,138.413,128.63,137.352,128.385,136.373ZM98.2,139.147c.326.326.245.489.653.9l1.142,1.468c.163.245.082.245.245.49a2.374,2.374,0,0,1,.734,2.366c-.163,1.224-1.061,7.75-1.632,8.4-1.305-.163-3.834-.734-4.65-1.876-.571-.816-1.061-.245-1.958-.979a18.18,18.18,0,0,1,.245-2.2c.082-.734.082-1.713.163-2.366.245-2.366.734-2.611-.326-3.834-1.958,0-3.916,0-3.345-3.182.163-.979,1.468-1.061,1.876-1.305a21.6,21.6,0,0,1,1.795-1.387c.734-.408.9-.245,1.387-.9s0-1.061.9-1.224a25.219,25.219,0,0,1,.734,2.529A7.631,7.631,0,0,0,98.2,139.147Z" transform="translate(-27.869 -37.48)"/><path class="a" d="M66.129,54.989l.571,4.242c.082.816,0,1.632.082,2.366.245,2.04,1.142,4.813,1.224,5.955.082,1.795.734,2.2.9,3.916.082.571.245.408.326.9.245.9-.245.9.408,3.182.9,2.855.571,2.447,0,3.834-.326.816-.489,3.508,0,4.324,1.305,2.366,3.834,2.611,6.771,1.55A36.186,36.186,0,0,0,80.814,82.4c1.468-1.061,2.611-1.876,3.182-4,.326-1.305-.326-1.958-.408-4.079a31.526,31.526,0,0,0-.816-4l-1.061-5.058a33.851,33.851,0,0,1-.816-4,2.366,2.366,0,0,1-.245-.9c-.082-.653-.326-1.387-.408-1.876-.082-.408-.082-.816-.163-1.142-.082-.408-.163-.489-.245-.9-.245-1.142,0-4-.734-6.363a11.9,11.9,0,0,1-.49-4.242c-.245-3.916-.163-13.3-4.569-14.93a5.8,5.8,0,0,0-2.121-.326,6.828,6.828,0,0,0-5.548,4c-1.142,2.2-2.611,8.4-2.284,9.464.571,1.958,2.692,5.14,2.774,6.771C66.945,52.868,66.048,51.237,66.129,54.989Z" transform="translate(-27.534 -24.217)"/><path class="a" d="M102.138,77.049c1.876-.163,5.466-1.387,6.445-2.447,1.55-1.632,1.468-4.65,1.061-7.179-.163-.979-.489-2.284-.653-3.59a16.928,16.928,0,0,1,.163-4.079c.163-3.345,1.061-5.711,1.305-7.424l.082-6.608c-.082-.979-.326-.816-.653-1.468.245-.408.489-.245.979-1.305,2.366-4.161.979-16.072-2.447-19.417a1.812,1.812,0,0,0-1.713-.734c-1.632,0-2.937-.163-4.242.571-4.813,2.692-3.345,10.606-2.774,15.337.163,1.468.326,3.019.489,4.487a22.16,22.16,0,0,1,.082,4.65,6.937,6.937,0,0,1-1.142,3.59c-.979,1.876,2.284,5.058,1.387,7.669-.979.163-1.224-.653-2.284,1.713-1.55,3.426-.571,11.666.9,15.011C99.609,76.967,100.344,77.212,102.138,77.049Z" transform="translate(-33.684 -22.781)"/><path class="a" d="M45.16,117.865c-.326-.245-.9-.571-1.305-.816-2.447-1.713,2.529-1.468-5.874-8.4-1.632-1.387-3.1-2.447-4.732-3.671-3.916-2.937-6.608-1.876-8-2.366-.489-.163-.9-.571-1.632-.326-1.713.571-4.487,6.934-4.324,7.913.326,1.795,3.753,5.792,5.221,7.342.653.734,1.061,1.305,1.876,2.2.653.653,1.305,1.55,1.958,2.2,1.061,1.061,3.019,3.1,4.242,4.161a45.046,45.046,0,0,0,12.4,8.24c2.121.816,1.958,1.142,3.182.9a8.619,8.619,0,0,0,1.55-.49c.489-.245.653-.571,1.142-.816.653-.326.571-.571.816-1.224a6.845,6.845,0,0,0,.571-1.55c.734-3.182-1.305-6.771-3.1-9.137A16.108,16.108,0,0,0,45.16,117.865Z" transform="translate(-19.292 -37.409)"/><path class="a" d="M123.109,76.157c1.224,1.142,1.958,1.305,4.079,1.224a3.349,3.349,0,0,0,3.345-1.876,23.313,23.313,0,0,0,2.447-8c.163-1.795-1.224-1.958-.082-4.161a17.265,17.265,0,0,1,.979-1.632c.571-1.142.408-3.508.571-4.732.326-2.2.326-4,.49-6.2.9-.734,1.387-.653,1.958-1.958.816-1.795.653-4.242.816-5.14a7.7,7.7,0,0,0,.245-.734c.653-2.611.9-2.284.9-5.14,0-3.834-2.692-10.687-8-8.974-2.2.734-3.345,2.447-4.324,4.405a22.525,22.525,0,0,0-1.468,7.261l.163,12.727c0,.9-.408,1.632-.082,2.447.326.979.734,1.061.489,2.447a3.308,3.308,0,0,1-1.061,1.958c-.816.9-1.876,5.058-2.2,6.527a22.864,22.864,0,0,0-.489,5.711C121.8,74.2,121.559,74.688,123.109,76.157Z" transform="translate(-38.175 -23.847)"/><path class="a" d="M169.236,67.732c-.408-1.632-1.061-4-3.182-3.263-4.161,1.387-8.648,12.482-11.585,15.256-.653.653-2.774,2.447-3.182,3.59-.408,1.061.326,2.2.163,2.937-.163.653-1.305,1.061-1.958,1.387-1.713.979-2.284,1.632-3.019,3.834a13.957,13.957,0,0,0-.408,5.874c.9.571,2.937.816,4.079,1.224.816.245.163.408.816.408a1.185,1.185,0,0,1,.979.245c.816.489.49.326,2.121.163.979-1.224,6.2-11.993,6.771-13.379a22.114,22.114,0,0,1,1.632-3.426,20.27,20.27,0,0,1,2.855-2.2c1.632-1.224,2.447-2.2,2.447-4.242a5.865,5.865,0,0,1,.9-2.447A6.537,6.537,0,0,0,169.481,71,13.963,13.963,0,0,0,169.236,67.732Z" transform="translate(-42.613 -30.434)"/></g><path class="b" d="M189.1,120.293V92.8h10.116v3.263H191.14v8.566h7.016v3.263H191.14v12.482H189.1Zm19.58,0v-2.937c-.816,2.284-1.958,3.345-3.426,3.345a3.032,3.032,0,0,1-1.795-.653,3.329,3.329,0,0,1-1.224-1.713,9.677,9.677,0,0,1-.571-2.529,31.755,31.755,0,0,1-.082-3.182V100.306h1.795v11.1c0,1.795,0,2.937.082,3.59a4.106,4.106,0,0,0,.734,2.121,1.706,1.706,0,0,0,1.387.734,1.973,1.973,0,0,0,1.55-.816,4.717,4.717,0,0,0,1.061-2.121,21.87,21.87,0,0,0,.326-3.916V100.306h1.795v19.906H208.68Zm4.487,0V100.387H214.8v2.855c.816-2.2,1.958-3.263,3.426-3.263a3.032,3.032,0,0,1,1.795.653,3.329,3.329,0,0,1,1.224,1.713,10.521,10.521,0,0,1,.571,2.529c.082.653.082,1.713.082,3.263v12.237H220.02V108.219a14.748,14.748,0,0,0-.245-3.1,4.31,4.31,0,0,0-.734-1.632,1.7,1.7,0,0,0-1.305-.653,2.453,2.453,0,0,0-2.04,1.387c-.571.9-.816,2.611-.816,5.221v10.932h-1.713Zm18.6,0v-2.529c-.653,1.958-1.713,2.937-3.019,2.937a2.961,2.961,0,0,1-2.366-1.305,9.611,9.611,0,0,1-1.713-3.671,21.379,21.379,0,0,1-.571-5.384,21.812,21.812,0,0,1,.571-5.384A8.425,8.425,0,0,1,226.3,101.2a3.1,3.1,0,0,1,2.447-1.305,2.348,2.348,0,0,1,1.713.734,5.745,5.745,0,0,1,1.224,1.958V92.8h1.795v27.575h-1.713Zm-5.792-9.953a14.325,14.325,0,0,0,.9,5.711c.571,1.224,1.305,1.876,2.04,1.876.816,0,1.468-.571,2.04-1.795a13.669,13.669,0,0,0,.816-5.548,15.9,15.9,0,0,0-.9-6.037c-.571-1.305-1.305-1.958-2.121-1.958s-1.468.653-2.04,1.876a20.212,20.212,0,0,0-.734,5.874Zm17.459,7.506a8.1,8.1,0,0,1-1.958,2.284,3.774,3.774,0,0,1-2.04.653,3.093,3.093,0,0,1-2.774-1.632,7.744,7.744,0,0,1-.979-4.079,9.373,9.373,0,0,1,.326-2.692,5.5,5.5,0,0,1,.979-1.958,4.252,4.252,0,0,1,1.305-1.142,8.031,8.031,0,0,1,1.632-.489,11.269,11.269,0,0,0,3.263-1.142v-.9a6.34,6.34,0,0,0-.49-2.937,2.365,2.365,0,0,0-2.121-1.142,2.065,2.065,0,0,0-1.876.816,6.549,6.549,0,0,0-.9,2.937l-1.795-.489a11.739,11.739,0,0,1,.816-3.426,4.553,4.553,0,0,1,1.632-2.04,4.317,4.317,0,0,1,2.447-.734,4.718,4.718,0,0,1,2.284.571,4.033,4.033,0,0,1,1.305,1.55,7.768,7.768,0,0,1,.571,2.284,29.076,29.076,0,0,1,.082,3.1v4.487c0,3.182,0,5.14.082,5.956a11.066,11.066,0,0,0,.49,2.366H243.76a19.047,19.047,0,0,1-.326-2.2Zm-.082-7.587a9.7,9.7,0,0,1-3.019,1.305,4.474,4.474,0,0,0-1.632.653,2.321,2.321,0,0,0-.734,1.142,4.906,4.906,0,0,0-.245,1.632,4.139,4.139,0,0,0,.571,2.284,1.881,1.881,0,0,0,1.632.9,2.479,2.479,0,0,0,1.876-.816,5.028,5.028,0,0,0,1.224-2.366,15.748,15.748,0,0,0,.326-3.345v-1.387Zm11.748,2.774,1.795.408a11.7,11.7,0,0,1-1.55,5.384,3.507,3.507,0,0,1-3.019,1.958c-1.468,0-2.692-.9-3.59-2.692a17.391,17.391,0,0,1-1.387-7.669,23,23,0,0,1,.571-5.629,7.739,7.739,0,0,1,1.795-3.671,3.573,3.573,0,0,1,2.611-1.224,3.416,3.416,0,0,1,2.855,1.632,10.4,10.4,0,0,1,1.468,4.65l-1.795.489a7.8,7.8,0,0,0-.9-3.019,1.862,1.862,0,0,0-1.55-.979,2.6,2.6,0,0,0-2.284,1.795,14.5,14.5,0,0,0-.9,5.792,14.961,14.961,0,0,0,.816,5.874c.571,1.224,1.305,1.795,2.2,1.795a2.076,2.076,0,0,0,1.795-1.224,6.77,6.77,0,0,0,1.061-3.671Zm3.345-16.316V92.8h1.795v3.916Zm-2.284,31.328.326-2.855a2.476,2.476,0,0,0,.9.245.859.859,0,0,0,.816-.653,14.215,14.215,0,0,0,.245-3.426V100.387h1.795v21.048a18.415,18.415,0,0,1-.489,5.14,2.3,2.3,0,0,1-2.2,1.876,3.913,3.913,0,0,1-1.387-.408Zm14.032-10.2a8.094,8.094,0,0,1-1.958,2.284,3.774,3.774,0,0,1-2.04.653,3.093,3.093,0,0,1-2.774-1.632,7.745,7.745,0,0,1-.979-4.079,9.372,9.372,0,0,1,.326-2.692,5.5,5.5,0,0,1,.979-1.958,4.252,4.252,0,0,1,1.305-1.142,8.032,8.032,0,0,1,1.632-.489,11.269,11.269,0,0,0,3.263-1.142v-.9a6.34,6.34,0,0,0-.49-2.937,2.366,2.366,0,0,0-2.121-1.142,2.065,2.065,0,0,0-1.876.816,6.548,6.548,0,0,0-.9,2.937l-1.795-.489a11.738,11.738,0,0,1,.816-3.426,4.553,4.553,0,0,1,1.632-2.04,4.317,4.317,0,0,1,2.447-.734,4.718,4.718,0,0,1,2.284.571,4.033,4.033,0,0,1,1.305,1.55,7.768,7.768,0,0,1,.571,2.284,29.081,29.081,0,0,1,.082,3.1v4.487c0,3.182,0,5.14.082,5.956a11.067,11.067,0,0,0,.49,2.366h-1.958a6.568,6.568,0,0,1-.326-2.2Zm-.163-7.587a9.7,9.7,0,0,1-3.019,1.305,4.474,4.474,0,0,0-1.632.653,2.321,2.321,0,0,0-.734,1.142,4.906,4.906,0,0,0-.245,1.632,4.139,4.139,0,0,0,.571,2.284,1.881,1.881,0,0,0,1.632.9,2.479,2.479,0,0,0,1.876-.816,5.028,5.028,0,0,0,1.224-2.366,15.746,15.746,0,0,0,.326-3.345v-1.387Z" transform="translate(-31.275 -12.896)"/><g transform="translate(157.907 116.861)"><path class="b" d="M200.377,156.456l1.958.9a16.086,16.086,0,0,1-2.2,6.853,4.749,4.749,0,0,1-7.832.571,12.432,12.432,0,0,1-2.284-5.221,35.064,35.064,0,0,1-.816-7.424,29.112,29.112,0,0,1,.9-7.506,11.523,11.523,0,0,1,2.529-4.895,4.747,4.747,0,0,1,3.59-1.632,4.541,4.541,0,0,1,3.753,2.121,13.03,13.03,0,0,1,2.121,5.956l-1.958.816a9.82,9.82,0,0,0-1.55-4.405,3,3,0,0,0-2.529-1.387,3.331,3.331,0,0,0-2.855,1.55,9.919,9.919,0,0,0-1.632,4.079,28.494,28.494,0,0,0-.49,5.3,26.9,26.9,0,0,0,.571,6.119,9.735,9.735,0,0,0,1.713,3.916,3.367,3.367,0,0,0,2.529,1.305,3.134,3.134,0,0,0,2.774-1.795,10.35,10.35,0,0,0,1.713-5.221Zm3.182,9.627v-2.774l6.934-14.6a19.212,19.212,0,0,1-2.04.082h-4.405v-2.611h8.892v2.2l-5.874,12.645-1.142,2.284c.816-.082,1.632-.163,2.284-.163h4.977v2.937h-9.627Zm11.422-10.769-1.305,2.04v-2.937l1.305-2.04V138.589h1.795v10.932l1.387-2.121v2.937l-1.387,2.121v13.624H214.98V155.314Zm4,.816c0-3.671.571-6.445,1.713-8.24a3.953,3.953,0,0,1,3.426-2.2q2.2,0,3.671,2.692c.979,1.795,1.387,4.242,1.387,7.424a22.945,22.945,0,0,1-.653,6.037,8.48,8.48,0,0,1-1.795,3.426,3.712,3.712,0,0,1-2.611,1.224q-2.325,0-3.671-2.692c-.979-1.713-1.468-4.324-1.468-7.669Zm1.876,0a14.325,14.325,0,0,0,.9,5.711c.571,1.305,1.387,1.876,2.284,1.876s1.632-.653,2.284-1.958a15.245,15.245,0,0,0,.9-5.874,14.435,14.435,0,0,0-.9-5.629c-.571-1.305-1.387-1.876-2.284-1.876s-1.713.653-2.284,1.876a15.835,15.835,0,0,0-.9,5.874Zm12.4,9.953-3.345-19.906h1.876l1.713,11.5.653,4.242c0-.245.245-1.55.571-4.079l1.713-11.666h1.876l1.632,11.585.571,3.834.653-3.834,1.876-11.5h1.795l-3.426,19.906h-1.876l-1.713-11.911-.408-3.426-2.2,15.337h-1.958Zm13.135-23.659v-3.916h1.876v3.916Zm0,23.659V146.177h1.876v19.906Zm11.993-6.363,1.876.408a11.083,11.083,0,0,1-1.632,4.732,3.713,3.713,0,0,1-3.1,1.713,4.189,4.189,0,0,1-3.753-2.692,17.243,17.243,0,0,1-1.387-7.587,18.449,18.449,0,0,1,1.387-7.832c.979-1.876,2.121-2.774,3.671-2.774,1.468,0,2.611.9,3.508,2.692a17.64,17.64,0,0,1,1.387,7.669v.9h-8.077a13.19,13.19,0,0,0,.979,5.058,2.632,2.632,0,0,0,2.284,1.713,2.117,2.117,0,0,0,1.713-.979,6.644,6.644,0,0,0,1.142-3.019Zm-6.037-5.466h6.037a11.991,11.991,0,0,0-.653-3.753c-.571-1.305-1.305-1.958-2.284-1.958a2.458,2.458,0,0,0-2.121,1.55,9.177,9.177,0,0,0-.979,4.161Zm10.279,11.829V138.508H264.5v15.664l4.324-8.077h2.366l-4.161,7.424,4.569,12.564h-2.284l-3.59-10.2-1.305,2.284v7.913Zm48.949,0v-3.345l7.669-17.622c.571-1.224,1.061-2.366,1.55-3.263h-8.321v-3.263h10.687v3.263l-8.4,19.09-.9,1.958H323.4v3.263H311.573Zm15.745,0-3.345-19.906h1.876l1.713,11.5.653,4.242c0-.245.245-1.55.571-4.079l1.713-11.666h1.876l1.632,11.585.571,3.834.653-3.834,1.876-11.5H338.9l-3.426,19.906H333.6l-1.713-11.911-.408-3.426-2.2,15.337h-1.958Zm13.053-23.659v-3.916h1.876v3.916Zm0,23.659V146.177h1.876v19.906Zm12.074-6.363,1.876.408a11.083,11.083,0,0,1-1.632,4.732,3.713,3.713,0,0,1-3.1,1.713,4.189,4.189,0,0,1-3.753-2.692,17.243,17.243,0,0,1-1.387-7.587,18.449,18.449,0,0,1,1.387-7.832c.979-1.876,2.121-2.774,3.671-2.774,1.468,0,2.611.9,3.508,2.692a17.64,17.64,0,0,1,1.387,7.669v.9h-8.077a13.19,13.19,0,0,0,.979,5.058,2.632,2.632,0,0,0,2.284,1.713,2.117,2.117,0,0,0,1.713-.979,6.644,6.644,0,0,0,1.142-3.019Zm-6.037-5.466h6.037a11.99,11.99,0,0,0-.653-3.753c-.571-1.305-1.305-1.958-2.284-1.958a2.458,2.458,0,0,0-2.121,1.55,9.177,9.177,0,0,0-.979,4.161Zm10.2,11.829V146.177h1.632V149.2a9.6,9.6,0,0,1,1.142-2.774,1.316,1.316,0,0,1,1.142-.653,2.508,2.508,0,0,1,1.876,1.061l-.653,3.1a1.809,1.809,0,0,0-1.305-.734,1.389,1.389,0,0,0-1.061.653,3.625,3.625,0,0,0-.653,1.876,20.026,20.026,0,0,0-.326,3.916v10.443h-1.795Zm6.037,0v-2.774l6.934-14.6a19.212,19.212,0,0,1-2.04.082h-4.405v-2.611h8.892v2.2l-5.874,12.645-1.142,2.284c.816-.082,1.632-.163,2.284-.163h4.977v2.937h-9.627Zm18.519-2.447a8.1,8.1,0,0,1-1.958,2.284,3.774,3.774,0,0,1-2.04.653,3.093,3.093,0,0,1-2.774-1.632,7.745,7.745,0,0,1-.979-4.079,9.372,9.372,0,0,1,.326-2.692,5.5,5.5,0,0,1,.979-1.958,4.252,4.252,0,0,1,1.305-1.142,8.034,8.034,0,0,1,1.632-.489,11.268,11.268,0,0,0,3.263-1.142v-.9a6.341,6.341,0,0,0-.489-2.937,2.366,2.366,0,0,0-2.121-1.142,2.065,2.065,0,0,0-1.876.816,6.548,6.548,0,0,0-.9,2.937l-1.795-.49a11.741,11.741,0,0,1,.816-3.426,4.553,4.553,0,0,1,1.632-2.04,4.316,4.316,0,0,1,2.447-.734,4.718,4.718,0,0,1,2.284.571,4.033,4.033,0,0,1,1.305,1.55,7.767,7.767,0,0,1,.571,2.284,29.071,29.071,0,0,1,.082,3.1v4.487c0,3.182,0,5.14.082,5.956a11.065,11.065,0,0,0,.49,2.366h-1.958a6.568,6.568,0,0,1-.326-2.2ZM381,156.13a9.7,9.7,0,0,1-3.019,1.305,4.474,4.474,0,0,0-1.632.653,2.321,2.321,0,0,0-.734,1.142,4.907,4.907,0,0,0-.245,1.632,4.138,4.138,0,0,0,.571,2.284,1.881,1.881,0,0,0,1.632.9,2.479,2.479,0,0,0,1.876-.816,5.028,5.028,0,0,0,1.224-2.366,15.746,15.746,0,0,0,.326-3.345V156.13Zm2.04,9.953a4.466,4.466,0,0,0-.9,1.632,5.484,5.484,0,0,0-.326,1.958,3.107,3.107,0,0,0,.245,1.305.871.871,0,0,0,.734.571,1.16,1.16,0,0,0,.49-.163,1.707,1.707,0,0,0,.49-.326v2.366a2.373,2.373,0,0,1-1.387.653,1.645,1.645,0,0,1-.9-.245,1.926,1.926,0,0,1-.653-.734,4.1,4.1,0,0,1-.408-1.061,7.139,7.139,0,0,1-.163-1.305,8.421,8.421,0,0,1,.326-2.447,6.892,6.892,0,0,1,1.061-2.2Zm6.69-3.019.245,3.019a4.837,4.837,0,0,1-1.387.326,1.919,1.919,0,0,1-1.55-.571,3.062,3.062,0,0,1-.734-1.55,20.212,20.212,0,0,1-.245-4v-11.5h-1.387v-2.611h1.387V141.2l1.795-2.04V146.1h1.876v2.611h-1.876v11.666a10.01,10.01,0,0,0,.082,1.876,1.64,1.64,0,0,0,.326.653.8.8,0,0,0,.653.245c.163.082.408,0,.816-.082Z" transform="translate(-189.2 -138.1)"/><path class="b" d="M305.969,166.175v-2.529c-.653,1.958-1.713,2.937-3.019,2.937a2.961,2.961,0,0,1-2.366-1.305,9.611,9.611,0,0,1-1.713-3.671,21.377,21.377,0,0,1-.571-5.384,21.811,21.811,0,0,1,.571-5.384,8.424,8.424,0,0,1,1.632-3.753,3.1,3.1,0,0,1,2.447-1.305,2.348,2.348,0,0,1,1.713.734,5.745,5.745,0,0,1,1.224,1.958V138.6h1.795v27.575h-1.713Zm-5.792-9.953a14.325,14.325,0,0,0,.9,5.711c.571,1.224,1.305,1.876,2.04,1.876.816,0,1.468-.571,2.04-1.795a13.669,13.669,0,0,0,.816-5.548,18.1,18.1,0,0,0-.816-6.037c-.571-1.305-1.305-1.958-2.121-1.958s-1.469.653-2.04,1.876a15.506,15.506,0,0,0-.816,5.874Z" transform="translate(-209.294 -138.192)"/><path class="b" d="M313.3,166.193V138.7h1.795v27.493Z" transform="translate(-212.056 -138.211)"/><path class="b" d="M325.95,165.311a8.1,8.1,0,0,1-1.958,2.284,3.774,3.774,0,0,1-2.04.653,3.093,3.093,0,0,1-2.774-1.632,7.744,7.744,0,0,1-.979-4.079,9.373,9.373,0,0,1,.326-2.692,5.5,5.5,0,0,1,.979-1.958,4.252,4.252,0,0,1,1.305-1.142,8.033,8.033,0,0,1,1.632-.489,11.268,11.268,0,0,0,3.263-1.142v-.9a6.34,6.34,0,0,0-.49-2.937,2.365,2.365,0,0,0-2.121-1.142,2.065,2.065,0,0,0-1.876.816,6.548,6.548,0,0,0-.9,2.937l-1.795-.49a11.739,11.739,0,0,1,.816-3.426,4.553,4.553,0,0,1,1.632-2.04,4.317,4.317,0,0,1,2.447-.734,4.718,4.718,0,0,1,2.284.571,4.033,4.033,0,0,1,1.305,1.55,7.768,7.768,0,0,1,.571,2.284,29.081,29.081,0,0,1,.082,3.1v4.487c0,3.182,0,5.14.082,5.956a11.065,11.065,0,0,0,.49,2.366h-1.958a9.735,9.735,0,0,1-.326-2.2Zm-.163-7.506a9.7,9.7,0,0,1-3.019,1.305,4.475,4.475,0,0,0-1.632.653,2.321,2.321,0,0,0-.734,1.142,4.906,4.906,0,0,0-.245,1.632,4.139,4.139,0,0,0,.571,2.284,1.881,1.881,0,0,0,1.632.9,2.479,2.479,0,0,0,1.876-.816,5.028,5.028,0,0,0,1.224-2.366,15.746,15.746,0,0,0,.326-3.345v-1.387Z" transform="translate(-212.959 -139.776)"/></g></g></svg>