<svg xmlns="http://www.w3.org/2000/svg" width="89" height="89" viewBox="0 0 89 89"><defs><style>.a{fill:#80cbc4;}</style></defs><g transform="translate(-21.7 -21.7)"><path class="a" d="M43.4,59.7h2.4l20-15.4a.908.908,0,0,1,1,0L86.7,59.7H89L66.2,42Z"/><path class="a" d="M46.7,61V90.6h39V60.9L66.2,46Zm25,19.1H70.3a4.6,4.6,0,0,1-2.5,4.1v2.3a.736.736,0,0,1-.8.8.86.86,0,0,1-.8-.8V84.8c-.3,0-.5.1-.8.1A4.908,4.908,0,0,1,60.5,80c0-2.9.8-9.6.8-9.8.1-.4.5-.8.9-.7s.8.5.7.9c0,.1-.8,6.8-.8,9.7a3.3,3.3,0,1,0,6.6,0v-.2a.864.864,0,0,1-.3-.6.367.367,0,0,1,.1-.3,9.218,9.218,0,0,0-1.3-1.9,10.638,10.638,0,0,1-2.6-6.8.8.8,0,0,1,1.6,0c0,2.6,1.2,4.2,2.3,5.8A15.763,15.763,0,0,1,70,78.5h1.6a4.486,4.486,0,0,0,4-3.6l-.1.1c-.1.1-.2.1-.4.1a.842.842,0,0,1-.7-.4.8.8,0,0,1,.3-1.1l.7-.4c-.4-.3-1.2-.4-3-.4h-.8a.86.86,0,0,1-.8-.8,5.773,5.773,0,0,0-5.7-5.8c-4.4,0-5.4,4.4-5.6,5.8-1.8,11.7-2.4,12.8-3.3,14.6l-.1.3c.1.3-.2.4-.5.4a.756.756,0,0,1-.4-.1.841.841,0,0,1-.4-1.1l.1-.3c.8-1.6,1.3-2.6,3.1-14.1.5-3.5,2.7-7.2,7.2-7.2a7.388,7.388,0,0,1,7.3,6.6c3.4,0,4.5.6,4.8,2h0a1.268,1.268,0,0,1,.1.6v.6C77.4,76.3,75.5,80,71.7,80.1Zm-3.8-8.2a.86.86,0,0,1,.8-.8.789.789,0,0,1,.8.8.8.8,0,0,1-1.6,0Zm6.3-15.8a4.566,4.566,0,0,1,3.8,2,1.183,1.183,0,0,1,.1,1,1.149,1.149,0,0,1-.9.6H74.8v2h2.4a.961.961,0,0,1,.9.6.92.92,0,0,1-.1,1,4.834,4.834,0,0,1-3.8,2,4.246,4.246,0,0,1-3.9-2.5H55.8a2.342,2.342,0,0,1-2-2.2,2.006,2.006,0,0,1,2-2H70.3A4.246,4.246,0,0,1,74.2,56.1Z"/><path class="a" d="M66.2,21.7a44.5,44.5,0,1,0,44.5,44.5A44.47,44.47,0,0,0,66.2,21.7Zm26,39.1a.792.792,0,0,1-.8.5H87.3V90.6h2.4a.86.86,0,0,1,.8.8.709.709,0,0,1-.7.8H42.6a.8.8,0,0,1,0-1.6h2.5V61.3H41a.891.891,0,0,1-.8-.5.806.806,0,0,1,.3-.9L65.7,40.4a.908.908,0,0,1,1,0L91.9,59.9A.806.806,0,0,1,92.2,60.8Z"/><path class="a" d="M54.8,60.7a1,1,0,0,0,1,1H70.3a.961.961,0,0,1,.9.6,3.222,3.222,0,0,0,3,2,3.5,3.5,0,0,0,2.9-1.5H74.7a1,1,0,0,1-1-1v-2a1,1,0,0,1,1-1l2.4-.2a3.514,3.514,0,0,0-2.9-1.5,3.222,3.222,0,0,0-3,2,.961.961,0,0,1-.9.6H55.8A1,1,0,0,0,54.8,60.7Zm2,.4h-1v-1h1Z"/></g></svg>