<svg xmlns="http://www.w3.org/2000/svg" width="557.055" height="616.662" viewBox="0 0 557.055 616.662"><defs><style>.a{opacity:0.18;}.b{fill:#80cbc4;}</style></defs><g class="a" transform="translate(-193.973 -94.792) rotate(-19)"><path class="b" d="M147.3,466.829c-11.729,0-23.507-3.7-34.612-10.947-22.044-14.388-38.9-41.669-45.094-72.965-10.723-54.187,12.826-105.449,52.5-114.268,15.644-3.483,31.811-.158,46.773,9.609,22.044,14.389,38.9,41.661,45.094,72.957,10.723,54.188-12.826,105.449-52.5,114.269A55.807,55.807,0,0,1,147.3,466.829ZM132.164,283.943a38.621,38.621,0,0,0-8.453.931C92.773,291.756,74.918,334.29,83.9,379.691c5.345,27,19.5,50.281,37.871,62.267,11.113,7.257,22.9,9.792,34.072,7.3,30.938-6.874,48.793-49.416,39.807-94.81-5.345-27-19.5-50.281-37.871-62.275C149.437,286.727,140.718,283.943,132.164,283.943Z" transform="translate(87.739 0.003)"/><path class="b" d="M158.752,454.6a51.491,51.491,0,0,1-15.743-2.477c-34-10.964-50.771-56.008-37.405-100.42,7.631-25.336,23.441-45.867,43.39-56.349,14.206-7.456,29.051-9.027,42.908-4.58v.008c34,10.947,50.779,55.991,37.405,100.4-7.631,25.327-23.441,45.867-43.382,56.34A58.313,58.313,0,0,1,158.752,454.6ZM176.2,304.948a41.9,41.9,0,0,0-19.476,5.129c-15.785,8.287-28.943,25.643-35.2,46.424-10.773,35.793,1.147,71.594,26.583,79.789,9.526,3.067,19.924,1.862,30.09-3.483,15.777-8.287,28.935-25.635,35.194-46.415,10.781-35.8-1.147-71.594-26.583-79.789A34.485,34.485,0,0,0,176.2,304.948Z" transform="translate(350.991 153.554)"/><path class="b" d="M128.161,454.6a58.313,58.313,0,0,1-27.173-7.074C81.047,437.055,65.237,416.516,57.606,391.2c-13.374-44.421,3.408-89.465,37.405-100.412v-.008c13.873-4.447,28.711-2.876,42.908,4.58,19.949,10.482,35.759,31.013,43.39,56.349,13.366,44.412-3.408,89.457-37.405,100.42A51.452,51.452,0,0,1,128.161,454.6Zm-28.054-148c-25.435,8.2-37.364,43.988-26.583,79.8,6.259,20.772,19.417,38.12,35.194,46.407,10.166,5.345,20.589,6.542,30.1,3.483,25.427-8.2,37.347-44,26.574-79.8-6.259-20.772-19.417-38.128-35.2-46.416-10.158-5.328-20.564-6.533-30.082-3.474Z" transform="translate(0 153.554)"/><path class="b" d="M154.252,466.832a55.807,55.807,0,0,1-12.161-1.346c-39.666-8.819-63.215-60.081-52.5-114.269h0c6.193-31.3,23.05-58.568,45.094-72.957,14.962-9.767,31.129-13.1,46.773-9.609,39.674,8.819,63.223,60.081,52.5,114.268-6.193,31.3-23.05,58.576-45.094,72.965C177.759,463.133,165.98,466.832,154.252,466.832ZM105.9,354.442c-8.977,45.4,8.878,87.944,39.807,94.818,11.172,2.494,22.95-.042,34.072-7.3,18.37-11.986,32.526-35.269,37.871-62.267,8.986-45.4-8.869-87.935-39.807-94.818-11.163-2.5-22.958.042-34.072,7.3-18.37,11.995-32.526,35.277-37.871,62.275Z" transform="translate(248.604 0)"/><path class="b" d="M341.46,587.236c-11.945,0-33.847-4.73-55.027-9.3-16.683-3.6-33.939-7.323-40.564-7.323s-23.881,3.724-40.564,7.323c-21.18,4.572-43.082,9.3-55.027,9.3A87.375,87.375,0,0,1,63,499.957c0-14.239,0-40.747,27.248-69.183l82.74-99.315a93.132,93.132,0,0,1,145.872.133L401.874,431.2c26.865,28.012,26.865,54.52,26.865,68.759A87.375,87.375,0,0,1,341.46,587.236Zm-95.591-33.249c8.4,0,24.937,3.566,44.072,7.689,19.384,4.189,41.345,8.936,51.519,8.936a70.739,70.739,0,0,0,70.654-70.654c0-13.566,0-34.072-22.626-57.687L305.984,342.1a76.521,76.521,0,0,0-120.12-.125l-83.231,99.872c-23.008,24.039-23.008,44.545-23.008,58.111a70.739,70.739,0,0,0,70.654,70.654c10.174,0,32.135-4.747,51.519-8.936C220.933,557.552,237.466,553.987,245.869,553.987Z" transform="translate(73.082 212.07)"/></g></svg>